<?xml version="1.0" encoding="UTF-8"?>
<svg width="400pt" version="1.1" xmlns="http://www.w3.org/2000/svg" height="300pt" viewBox="0 0 400 300" xmlns:xlink="http://www.w3.org/1999/xlink">
 <defs>
  <path id="GlTimesNewRomanPSMT87" d="M9.36031 3.37891 L9.36031 3.55953 C9.36031 3.55953 9.10156 3.55953 8.94047 3.65234 C8.94047 3.65234 8.77937 3.74516 8.63281 3.99906 C8.63281 3.99906 8.53516 4.16984 8.32516 4.81438 L6.47953 10.1514 L6.28422 10.1514 L4.77547 5.91797 L3.27641 10.1514 L3.10062 10.1514 L1.13281 4.65328 C1.13281 4.65328 0.913125 4.03812 0.854531 3.92578 C0.854531 3.92578 0.756875 3.74016 0.588438 3.64984 C0.588438 3.64984 0.42 3.55953 0.131875 3.55953 L0.131875 3.37891 L2.58297 3.37891 L2.58297 3.55953 L2.46578 3.55953 C2.46578 3.55953 2.20703 3.55953 2.07031 3.67672 C2.07031 3.67672 1.93359 3.79391 1.93359 3.96 C1.93359 3.96 1.93359 4.13078 2.14844 4.74609 L3.45219 8.46187 L4.55078 5.30266 L4.35547 4.74609 L4.19922 4.30172 C4.19922 4.30172 4.09672 4.05766 3.96969 3.87203 C3.96969 3.87203 3.90625 3.77922 3.81344 3.71578 C3.81344 3.71578 3.69141 3.62797 3.56937 3.58891 C3.56937 3.58891 3.47656 3.55953 3.27641 3.55953 L3.27641 3.37891 L5.85453 3.37891 L5.85453 3.55953 L5.67875 3.55953 C5.67875 3.55953 5.40531 3.55953 5.27828 3.67672 C5.27828 3.67672 5.15141 3.79391 5.15141 3.99406 C5.15141 3.99406 5.15141 4.24313 5.37109 4.86328 L6.64062 8.46187 L7.90047 4.81438 C7.90047 4.81438 8.11531 4.20891 8.11531 3.97453 C8.11531 3.97453 8.11531 3.86234 8.04438 3.76469 C8.04438 3.76469 7.97359 3.66703 7.86625 3.62797 C7.86625 3.62797 7.68063 3.55953 7.38281 3.55953 L7.38281 3.37891 L9.36031 3.37891 Z"/>
  <path id="GlTimesNewRomanPSMT105" d="M1.45016 3.05656 C1.45016 3.05656 1.65531 3.05656 1.79937 3.20062 C1.79937 3.20062 1.94344 3.34469 1.94344 3.54984 C1.94344 3.54984 1.94344 3.75484 1.79937 3.90141 C1.79937 3.90141 1.65531 4.04781 1.45016 4.04781 C1.45016 4.04781 1.24516 4.04781 1.09859 3.90141 C1.09859 3.90141 0.952187 3.75484 0.952187 3.54984 C0.952187 3.54984 0.952187 3.34469 1.09625 3.20062 C1.09625 3.20062 1.24031 3.05656 1.45016 3.05656 L1.45016 3.05656 Z M1.85547 5.39547 L1.85547 8.98922 C1.85547 8.98922 1.85547 9.40922 1.91641 9.54844 C1.91641 9.54844 1.9775 9.6875 2.09719 9.75594 C2.09719 9.75594 2.21687 9.82422 2.53422 9.82422 L2.53422 10 L0.361406 10 L0.361406 9.82422 C0.361406 9.82422 0.688438 9.82422 0.800781 9.76078 C0.800781 9.76078 0.913125 9.69719 0.979063 9.55078 C0.979063 9.55078 1.045 9.40422 1.045 8.98922 L1.045 7.26562 C1.045 7.26562 1.045 6.53812 1.00094 6.32328 C1.00094 6.32328 0.966875 6.16703 0.893594 6.10594 C0.893594 6.10594 0.820312 6.04484 0.693438 6.04484 C0.693438 6.04484 0.556719 6.04484 0.361406 6.11813 L0.292969 5.94234 L1.64062 5.39547 L1.85547 5.39547 Z"/>
  <path id="GlTimesNewRomanPSMT110" d="M1.61625 6.34281 C1.61625 6.34281 2.40234 5.39547 3.11531 5.39547 C3.11531 5.39547 3.48141 5.39547 3.745 5.57859 C3.745 5.57859 4.00875 5.76172 4.165 6.18156 C4.165 6.18156 4.2725 6.47453 4.2725 7.08 L4.2725 8.98922 C4.2725 8.98922 4.2725 9.41406 4.34078 9.56547 C4.34078 9.56547 4.39453 9.6875 4.51406 9.75594 C4.51406 9.75594 4.63375 9.82422 4.95609 9.82422 L4.95609 10 L2.74422 10 L2.74422 9.82422 L2.83688 9.82422 C2.83688 9.82422 3.14938 9.82422 3.27391 9.72906 C3.27391 9.72906 3.39844 9.63375 3.44734 9.44828 C3.44734 9.44828 3.46687 9.375 3.46687 8.98922 L3.46687 7.15813 C3.46687 7.15813 3.46687 6.54781 3.30812 6.27203 C3.30812 6.27203 3.14938 5.99609 2.77344 5.99609 C2.77344 5.99609 2.19234 5.99609 1.61625 6.63078 L1.61625 8.98922 C1.61625 8.98922 1.61625 9.44328 1.67 9.55078 C1.67 9.55078 1.73828 9.69234 1.85781 9.75828 C1.85781 9.75828 1.9775 9.82422 2.34375 9.82422 L2.34375 10 L0.131875 10 L0.131875 9.82422 L0.229531 9.82422 C0.229531 9.82422 0.57125 9.82422 0.690937 9.65094 C0.690937 9.65094 0.810625 9.4775 0.810625 8.98922 L0.810625 7.32906 C0.810625 7.32906 0.810625 6.52344 0.773906 6.34766 C0.773906 6.34766 0.737344 6.17188 0.661563 6.10844 C0.661563 6.10844 0.585938 6.04484 0.459062 6.04484 C0.459062 6.04484 0.322344 6.04484 0.131875 6.11813 L0.0585938 5.94234 L1.40625 5.39547 L1.61625 5.39547 L1.61625 6.34281 Z"/>
  <path id="GlTimesNewRomanPSMT100" d="M3.47172 9.49703 C3.47172 9.49703 3.14453 9.83891 2.83203 9.98781 C2.83203 9.98781 2.51953 10.1367 2.15828 10.1367 C2.15828 10.1367 1.42578 10.1367 0.878906 9.52391 C0.878906 9.52391 0.332031 8.91109 0.332031 7.94922 C0.332031 7.94922 0.332031 6.98734 0.9375 6.18906 C0.9375 6.18906 1.54297 5.39062 2.49516 5.39062 C2.49516 5.39062 3.08594 5.39062 3.47172 5.76656 L3.47172 4.94141 C3.47172 4.94141 3.47172 4.17484 3.435 3.99906 C3.435 3.99906 3.39844 3.82328 3.32031 3.75984 C3.32031 3.75984 3.24219 3.69625 3.125 3.69625 C3.125 3.69625 2.99812 3.69625 2.78812 3.77438 L2.72469 3.60344 L4.05766 3.05656 L4.27734 3.05656 L4.27734 8.2275 C4.27734 8.2275 4.27734 9.01359 4.31391 9.18703 C4.31391 9.18703 4.35062 9.36031 4.43109 9.42875 C4.43109 9.42875 4.51172 9.49703 4.61922 9.49703 C4.61922 9.49703 4.75094 9.49703 4.97078 9.41406 L5.02438 9.585 L3.69625 10.1367 L3.47172 10.1367 L3.47172 9.49703 L3.47172 9.49703 Z M3.47172 9.15531 L3.47172 6.85062 C3.47172 6.85062 3.44234 6.51859 3.29578 6.24516 C3.29578 6.24516 3.14938 5.97172 2.90766 5.8325 C2.90766 5.8325 2.66609 5.69328 2.43656 5.69328 C2.43656 5.69328 2.00687 5.69328 1.67 6.07906 C1.67 6.07906 1.22562 6.58688 1.22562 7.56344 C1.22562 7.56344 1.22562 8.54984 1.65531 9.07469 C1.65531 9.07469 2.085 9.59953 2.61234 9.59953 C2.61234 9.59953 3.05672 9.59953 3.47172 9.15531 Z"/>
  <path id="GlTimesNewRomanPSMT111" d="M2.5 5.39547 C2.5 5.39547 3.51562 5.39547 4.13094 6.16703 C4.13094 6.16703 4.65328 6.82609 4.65328 7.68063 C4.65328 7.68063 4.65328 8.28125 4.36516 8.89656 C4.36516 8.89656 4.07719 9.51172 3.57172 9.82422 C3.57172 9.82422 3.06641 10.1367 2.44625 10.1367 C2.44625 10.1367 1.43562 10.1367 0.839844 9.33109 C0.839844 9.33109 0.336875 8.65234 0.336875 7.80766 C0.336875 7.80766 0.336875 7.19234 0.642031 6.58453 C0.642031 6.58453 0.947344 5.97656 1.44531 5.68609 C1.44531 5.68609 1.94344 5.39547 2.5 5.39547 L2.5 5.39547 Z M2.34859 5.71281 C2.34859 5.71281 2.08984 5.71281 1.82859 5.86672 C1.82859 5.86672 1.56734 6.02047 1.40625 6.40625 C1.40625 6.40625 1.24516 6.79203 1.24516 7.3975 C1.24516 7.3975 1.24516 8.37406 1.63328 9.08203 C1.63328 9.08203 2.02156 9.79 2.65625 9.79 C2.65625 9.79 3.12984 9.79 3.4375 9.39937 C3.4375 9.39937 3.74516 9.00875 3.74516 8.05656 C3.74516 8.05656 3.74516 6.86516 3.2325 6.18156 C3.2325 6.18156 2.88578 5.71281 2.34859 5.71281 Z"/>
  <path id="GlTimesNewRomanPSMT119" d="M0.0634375 5.52734 L1.93844 5.52734 L1.93844 5.70797 C1.93844 5.70797 1.67969 5.7275 1.59906 5.80078 C1.59906 5.80078 1.51859 5.87406 1.51859 6.01078 C1.51859 6.01078 1.51859 6.16203 1.60156 6.37688 L2.55859 8.95016 L3.52047 6.85547 L3.26656 6.19625 C3.26656 6.19625 3.14938 5.90328 2.95906 5.79094 C2.95906 5.79094 2.85156 5.72266 2.55859 5.70797 L2.55859 5.52734 L4.6875 5.52734 L4.6875 5.70797 C4.6875 5.70797 4.33594 5.72266 4.18953 5.835 C4.18953 5.835 4.09187 5.91312 4.09187 6.08391 C4.09187 6.08391 4.09187 6.18156 4.13094 6.28422 L5.14656 8.8525 L6.08891 6.37688 C6.08891 6.37688 6.18656 6.11328 6.18656 5.95703 C6.18656 5.95703 6.18656 5.86422 6.09125 5.79109 C6.09125 5.79109 5.99609 5.71781 5.71781 5.70797 L5.71781 5.52734 L7.12891 5.52734 L7.12891 5.70797 C7.12891 5.70797 6.70406 5.77141 6.50391 6.28422 L5.00984 10.1367 L4.80953 10.1367 L3.69141 7.28031 L2.38766 10.1367 L2.20703 10.1367 L0.771563 6.37688 C0.771563 6.37688 0.629844 6.02047 0.493125 5.89594 C0.493125 5.89594 0.356406 5.77141 0.0634375 5.70797 L0.0634375 5.52734 Z"/>
  <path id="GlTimesNewRomanPSMT66" d="M4.61922 6.62109 C4.61922 6.62109 5.30766 6.7675 5.64938 7.08984 C5.64938 7.08984 6.12312 7.53906 6.12312 8.18844 C6.12312 8.18844 6.12312 8.68156 5.81062 9.13328 C5.81062 9.13328 5.49812 9.585 4.95359 9.7925 C4.95359 9.7925 4.40922 10 3.29109 10 L0.166094 10 L0.166094 9.81938 L0.415 9.81938 C0.415 9.81938 0.830156 9.81938 1.01078 9.55562 C1.01078 9.55562 1.12312 9.38469 1.12312 8.82812 L1.12312 4.55078 C1.12312 4.55078 1.12312 3.93547 0.981406 3.77438 C0.981406 3.77438 0.791094 3.55953 0.415 3.55953 L0.166094 3.55953 L0.166094 3.37891 L3.02734 3.37891 C3.02734 3.37891 3.82812 3.37891 4.31156 3.49609 C4.31156 3.49609 5.04391 3.67188 5.42969 4.11875 C5.42969 4.11875 5.81547 4.56547 5.81547 5.14641 C5.81547 5.14641 5.81547 5.64453 5.51266 6.03766 C5.51266 6.03766 5.21 6.43063 4.61922 6.62109 L4.61922 6.62109 Z M2.06062 6.35734 C2.06062 6.35734 2.24125 6.39156 2.47313 6.40875 C2.47313 6.40875 2.70516 6.42578 2.98344 6.42578 C2.98344 6.42578 3.69625 6.42578 4.05516 6.27203 C4.05516 6.27203 4.41406 6.11813 4.60453 5.80078 C4.60453 5.80078 4.795 5.48344 4.795 5.10734 C4.795 5.10734 4.795 4.52641 4.32125 4.11625 C4.32125 4.11625 3.84766 3.70609 2.93953 3.70609 C2.93953 3.70609 2.45125 3.70609 2.06062 3.81344 L2.06062 6.35734 L2.06062 6.35734 Z M2.06062 9.52141 C2.06062 9.52141 2.62703 9.65328 3.17875 9.65328 C3.17875 9.65328 4.0625 9.65328 4.52641 9.25531 C4.52641 9.25531 4.99031 8.85734 4.99031 8.27141 C4.99031 8.27141 4.99031 7.88578 4.78031 7.52937 C4.78031 7.52937 4.57031 7.17281 4.09672 6.96781 C4.09672 6.96781 3.62312 6.76266 2.92484 6.76266 C2.92484 6.76266 2.62203 6.76266 2.40719 6.7725 C2.40719 6.7725 2.19234 6.78219 2.06062 6.80656 L2.06062 9.52141 Z"/>
  <path id="GlTimesNewRomanPSMT117" d="M4.23344 5.52734 L4.23344 8.23734 C4.23344 8.23734 4.23344 9.01359 4.27 9.18703 C4.27 9.18703 4.30672 9.36031 4.38719 9.42875 C4.38719 9.42875 4.46781 9.49703 4.57516 9.49703 C4.57516 9.49703 4.72656 9.49703 4.91703 9.41406 L4.98531 9.585 L3.6475 10.1367 L3.42781 10.1367 L3.42781 9.18938 C3.42781 9.18938 2.85156 9.81438 2.54875 9.97563 C2.54875 9.97563 2.24609 10.1367 1.90922 10.1367 C1.90922 10.1367 1.53328 10.1367 1.25734 9.91953 C1.25734 9.91953 0.981406 9.70219 0.873906 9.36047 C0.873906 9.36047 0.766563 9.01859 0.766563 8.39359 L0.766563 6.39641 C0.766563 6.39641 0.766563 6.07906 0.698125 5.95703 C0.698125 5.95703 0.629844 5.835 0.495625 5.76906 C0.495625 5.76906 0.361406 5.70312 0.00984375 5.70797 L0.00984375 5.52734 L1.57719 5.52734 L1.57719 8.52047 C1.57719 8.52047 1.57719 9.14547 1.79438 9.34078 C1.79438 9.34078 2.01172 9.53609 2.31937 9.53609 C2.31937 9.53609 2.52937 9.53609 2.79547 9.40437 C2.79547 9.40437 3.06156 9.2725 3.42781 8.90141 L3.42781 6.36719 C3.42781 6.36719 3.42781 5.98625 3.28859 5.85203 C3.28859 5.85203 3.14938 5.71781 2.71 5.70797 L2.71 5.52734 L4.23344 5.52734 Z"/>
  <path id="GlTimesNewRomanPSMT116" d="M1.61141 4.05766 L1.61141 5.52734 L2.65625 5.52734 L2.65625 5.86906 L1.61141 5.86906 L1.61141 8.76953 C1.61141 8.76953 1.61141 9.20406 1.73578 9.35547 C1.73578 9.35547 1.86031 9.50688 2.05563 9.50688 C2.05563 9.50688 2.21687 9.50688 2.36813 9.40672 C2.36813 9.40672 2.51953 9.30656 2.6025 9.11125 L2.79297 9.11125 C2.79297 9.11125 2.62203 9.58984 2.30953 9.83156 C2.30953 9.83156 1.99703 10.0733 1.665 10.0733 C1.665 10.0733 1.44047 10.0733 1.22562 9.94875 C1.22562 9.94875 1.01078 9.82422 0.908125 9.59234 C0.908125 9.59234 0.805625 9.36031 0.805625 8.87688 L0.805625 5.86906 L0.0976562 5.86906 L0.0976562 5.70797 C0.0976562 5.70797 0.36625 5.60062 0.647031 5.34422 C0.647031 5.34422 0.927813 5.08781 1.1475 4.73625 C1.1475 4.73625 1.25984 4.55078 1.46 4.05766 L1.61141 4.05766 Z"/>
  <path id="GlTimesNewRomanPSMT44" d="M0.537188 11.665 L0.537188 11.4502 C0.537188 11.4502 1.04 11.2842 1.31594 10.935 C1.31594 10.935 1.59187 10.5859 1.59187 10.1953 C1.59187 10.1953 1.59187 10.1025 1.54781 10.0391 C1.54781 10.0391 1.51375 9.99516 1.47953 9.99516 C1.47953 9.99516 1.42578 9.99516 1.24516 10.0928 C1.24516 10.0928 1.15719 10.1367 1.05953 10.1367 C1.05953 10.1367 0.820312 10.1367 0.67875 9.99516 C0.67875 9.99516 0.537188 9.85344 0.537188 9.60453 C0.537188 9.60453 0.537188 9.36516 0.720156 9.19438 C0.720156 9.19438 0.903281 9.02344 1.16703 9.02344 C1.16703 9.02344 1.48922 9.02344 1.74063 9.30422 C1.74063 9.30422 1.99219 9.585 1.99219 10.0489 C1.99219 10.0489 1.99219 10.5517 1.64297 10.9839 C1.64297 10.9839 1.29391 11.4161 0.537188 11.665 Z"/>
  <path id="GlTimesNewRomanPSMT76" d="M5.7325 8.16891 L5.89359 8.20312 L5.32719 10 L0.200156 10 L0.200156 9.81938 L0.449219 9.81938 C0.449219 9.81938 0.869219 9.81938 1.04984 9.54594 C1.04984 9.54594 1.15234 9.38969 1.15234 8.82328 L1.15234 4.55078 C1.15234 4.55078 1.15234 3.93063 1.01562 3.77438 C1.01562 3.77438 0.825156 3.55953 0.449219 3.55953 L0.200156 3.55953 L0.200156 3.37891 L3.19828 3.37891 L3.19828 3.55953 C3.19828 3.55953 2.67094 3.55469 2.45844 3.65719 C2.45844 3.65719 2.24609 3.75969 2.16797 3.91594 C2.16797 3.91594 2.08984 4.07219 2.08984 4.66312 L2.08984 8.82328 C2.08984 8.82328 2.08984 9.22844 2.16797 9.37984 C2.16797 9.37984 2.22656 9.48234 2.34859 9.53125 C2.34859 9.53125 2.47078 9.58 3.11031 9.58 L3.59375 9.58 C3.59375 9.58 4.35547 9.58 4.66312 9.46781 C4.66312 9.46781 4.97078 9.35547 5.22469 9.06984 C5.22469 9.06984 5.47859 8.78422 5.7325 8.16891 Z"/>
  <path id="GlTimesNewRomanPSMT97" d="M2.84672 9.35547 C2.84672 9.35547 2.15828 9.88766 1.9825 9.97063 C1.9825 9.97063 1.71875 10.0928 1.42094 10.0928 C1.42094 10.0928 0.957031 10.0928 0.656719 9.77547 C0.656719 9.77547 0.356406 9.45797 0.356406 8.94047 C0.356406 8.94047 0.356406 8.61328 0.502969 8.37406 C0.502969 8.37406 0.703125 8.04203 1.19875 7.74906 C1.19875 7.74906 1.69437 7.45609 2.84672 7.03609 L2.84672 6.86031 C2.84672 6.86031 2.84672 6.19141 2.63422 5.94234 C2.63422 5.94234 2.42188 5.69328 2.01656 5.69328 C2.01656 5.69328 1.70906 5.69328 1.52828 5.85938 C1.52828 5.85938 1.34281 6.02531 1.34281 6.24016 L1.3525 6.52344 C1.3525 6.52344 1.3525 6.74797 1.23781 6.87016 C1.23781 6.87016 1.12312 6.99219 0.9375 6.99219 C0.9375 6.99219 0.756875 6.99219 0.642031 6.86531 C0.642031 6.86531 0.527344 6.73828 0.527344 6.51859 C0.527344 6.51859 0.527344 6.09859 0.957031 5.74703 C0.957031 5.74703 1.38672 5.39547 2.16312 5.39547 C2.16312 5.39547 2.75875 5.39547 3.13969 5.59563 C3.13969 5.59563 3.42781 5.74703 3.56453 6.06937 C3.56453 6.06937 3.65234 6.27922 3.65234 6.92875 L3.65234 8.44719 C3.65234 8.44719 3.65234 9.08687 3.67672 9.23094 C3.67672 9.23094 3.70125 9.375 3.75734 9.42391 C3.75734 9.42391 3.81344 9.47266 3.88672 9.47266 C3.88672 9.47266 3.96484 9.47266 4.02344 9.43844 C4.02344 9.43844 4.12594 9.375 4.41891 9.08203 L4.41891 9.35547 C4.41891 9.35547 3.87203 10.088 3.37406 10.088 C3.37406 10.088 3.13484 10.088 2.99313 9.92188 C2.99313 9.92188 2.85156 9.75578 2.84672 9.35547 L2.84672 9.35547 Z M2.84672 9.03813 L2.84672 7.33391 C2.84672 7.33391 2.10938 7.62688 1.89453 7.74906 C1.89453 7.74906 1.50875 7.96391 1.34266 8.19828 C1.34266 8.19828 1.17672 8.43266 1.17672 8.71094 C1.17672 8.71094 1.17672 9.0625 1.38672 9.29453 C1.38672 9.29453 1.59672 9.52641 1.87016 9.52641 C1.87016 9.52641 2.24125 9.52641 2.84672 9.03813 Z"/>
  <path id="GlTimesNewRomanPSMT98" d="M1.53812 6.29875 C1.53812 6.29875 2.1875 5.39547 2.93953 5.39547 C2.93953 5.39547 3.62797 5.39547 4.14062 5.98391 C4.14062 5.98391 4.65328 6.57219 4.65328 7.59281 C4.65328 7.59281 4.65328 8.78422 3.86234 9.51172 C3.86234 9.51172 3.18359 10.1367 2.34859 10.1367 C2.34859 10.1367 1.95797 10.1367 1.55516 9.99516 C1.55516 9.99516 1.15234 9.85344 0.7325 9.57031 L0.7325 4.93656 C0.7325 4.93656 0.7325 4.17484 0.695781 3.99906 C0.695781 3.99906 0.659219 3.82328 0.581094 3.75984 C0.581094 3.75984 0.502969 3.69625 0.385781 3.69625 C0.385781 3.69625 0.249062 3.69625 0.0439063 3.77438 L-0.024375 3.60344 L1.31844 3.05656 L1.53812 3.05656 L1.53812 6.29875 L1.53812 6.29875 Z M1.53812 6.61125 L1.53812 9.28703 C1.53812 9.28703 1.78719 9.53125 2.05328 9.65578 C2.05328 9.65578 2.31937 9.78031 2.59766 9.78031 C2.59766 9.78031 3.04203 9.78031 3.42531 9.29203 C3.42531 9.29203 3.80859 8.80375 3.80859 7.87109 C3.80859 7.87109 3.80859 7.01172 3.42531 6.55031 C3.42531 6.55031 3.04203 6.08891 2.55375 6.08891 C2.55375 6.08891 2.295 6.08891 2.03609 6.22063 C2.03609 6.22063 1.84078 6.31828 1.53812 6.61125 Z"/>
  <path id="GlTimesNewRomanPSMT101" d="M1.06453 7.21188 C1.06453 7.21188 1.05953 8.20797 1.54781 8.77437 C1.54781 8.77437 2.03609 9.34078 2.69531 9.34078 C2.69531 9.34078 3.13484 9.34078 3.45953 9.09906 C3.45953 9.09906 3.78422 8.85734 4.00391 8.27141 L4.15531 8.36906 C4.15531 8.36906 4.05281 9.03813 3.55953 9.5875 C3.55953 9.5875 3.06641 10.1367 2.32422 10.1367 C2.32422 10.1367 1.51859 10.1367 0.944844 9.50938 C0.944844 9.50938 0.371094 8.88188 0.371094 7.82219 C0.371094 7.82219 0.371094 6.67484 0.959375 6.03281 C0.959375 6.03281 1.54781 5.39062 2.43656 5.39062 C2.43656 5.39062 3.18844 5.39062 3.67188 5.88625 C3.67188 5.88625 4.15531 6.38187 4.15531 7.21188 L1.06453 7.21188 L1.06453 7.21188 Z M1.06453 6.92875 L3.13484 6.92875 C3.13484 6.92875 3.11031 6.49906 3.03219 6.32328 C3.03219 6.32328 2.91016 6.04984 2.66844 5.89359 C2.66844 5.89359 2.42672 5.73734 2.16312 5.73734 C2.16312 5.73734 1.75781 5.73734 1.43797 6.05234 C1.43797 6.05234 1.11813 6.36719 1.06453 6.92875 Z"/>
  <path id="GlTimesNewRomanPSMT108" d="M1.85062 3.05656 L1.85062 8.98922 C1.85062 8.98922 1.85062 9.40922 1.91156 9.54594 C1.91156 9.54594 1.97266 9.68266 2.09953 9.75344 C2.09953 9.75344 2.22656 9.82422 2.57328 9.82422 L2.57328 10 L0.380937 10 L0.380937 9.82422 C0.380937 9.82422 0.688438 9.82422 0.800781 9.76078 C0.800781 9.76078 0.913125 9.69719 0.976562 9.55078 C0.976562 9.55078 1.04 9.40422 1.04 8.98922 L1.04 4.92672 C1.04 4.92672 1.04 4.16984 1.00578 3.99656 C1.00578 3.99656 0.971719 3.82328 0.895938 3.75984 C0.895938 3.75984 0.820312 3.69625 0.703125 3.69625 C0.703125 3.69625 0.57625 3.69625 0.380937 3.77438 L0.297812 3.60344 L1.63094 3.05656 L1.85062 3.05656 Z"/>
  <path id="GlTimesNewRomanPSMT46" d="M1.25 9.05266 C1.25 9.05266 1.47953 9.05266 1.63578 9.21141 C1.63578 9.21141 1.79203 9.37016 1.79203 9.59469 C1.79203 9.59469 1.79203 9.81938 1.63328 9.97813 C1.63328 9.97813 1.47469 10.1367 1.25 10.1367 C1.25 10.1367 1.02547 10.1367 0.866719 9.97813 C0.866719 9.97813 0.707969 9.81938 0.707969 9.59469 C0.707969 9.59469 0.707969 9.36516 0.866719 9.20891 C0.866719 9.20891 1.02547 9.05266 1.25 9.05266 Z"/>
  <path id="GlTimesNewRomanPSMT69" d="M2.08984 3.74016 L2.08984 6.35734 L3.545 6.35734 C3.545 6.35734 4.11141 6.35734 4.30172 6.18656 C4.30172 6.18656 4.55563 5.96188 4.585 5.39547 L4.76562 5.39547 L4.76562 7.70016 L4.585 7.70016 C4.585 7.70016 4.51656 7.21672 4.44828 7.08 C4.44828 7.08 4.36031 6.90922 4.16016 6.81156 C4.16016 6.81156 3.96 6.71391 3.545 6.71391 L2.08984 6.71391 L2.08984 8.89641 C2.08984 8.89641 2.08984 9.33594 2.12891 9.43125 C2.12891 9.43125 2.16797 9.52641 2.26562 9.5825 C2.26562 9.5825 2.36328 9.63859 2.63672 9.63859 L3.75984 9.63859 C3.75984 9.63859 4.32125 9.63859 4.57516 9.56047 C4.57516 9.56047 4.82906 9.48234 5.06344 9.25297 C5.06344 9.25297 5.36625 8.95016 5.68359 8.33984 L5.87891 8.33984 L5.30766 10 L0.205156 10 L0.205156 9.81938 L0.439531 9.81938 C0.439531 9.81938 0.673906 9.81938 0.88375 9.70703 C0.88375 9.70703 1.04 9.62891 1.09609 9.47266 C1.09609 9.47266 1.15234 9.31641 1.15234 8.83297 L1.15234 4.53125 C1.15234 4.53125 1.15234 3.90141 1.02547 3.75484 C1.02547 3.75484 0.849688 3.55953 0.439531 3.55953 L0.205156 3.55953 L0.205156 3.37891 L5.30766 3.37891 L5.38094 4.82906 L5.19047 4.82906 C5.19047 4.82906 5.08797 4.30656 4.96344 4.11125 C4.96344 4.11125 4.83891 3.91594 4.59469 3.81344 C4.59469 3.81344 4.39938 3.74016 3.90625 3.74016 L2.08984 3.74016 Z"/>
  <path id="GlTimesNewRomanPSMT109" d="M1.64062 6.34766 C1.64062 6.34766 2.12891 5.85938 2.21687 5.78609 C2.21687 5.78609 2.43656 5.60062 2.69047 5.49812 C2.69047 5.49812 2.94437 5.39547 3.19344 5.39547 C3.19344 5.39547 3.61328 5.39547 3.91594 5.63969 C3.91594 5.63969 4.21875 5.88375 4.32125 6.34766 C4.32125 6.34766 4.82422 5.76172 5.17094 5.57859 C5.17094 5.57859 5.51766 5.39547 5.88375 5.39547 C5.88375 5.39547 6.24031 5.39547 6.51609 5.57859 C6.51609 5.57859 6.79203 5.76172 6.95312 6.17672 C6.95312 6.17672 7.06062 6.46 7.06062 7.06547 L7.06062 8.98922 C7.06062 8.98922 7.06062 9.40922 7.12406 9.56547 C7.12406 9.56547 7.17281 9.67281 7.30469 9.74859 C7.30469 9.74859 7.43656 9.82422 7.73438 9.82422 L7.73438 10 L5.52734 10 L5.52734 9.82422 L5.62016 9.82422 C5.62016 9.82422 5.90828 9.82422 6.06937 9.71187 C6.06937 9.71187 6.18172 9.63375 6.23047 9.46281 C6.23047 9.46281 6.25 9.37984 6.25 8.98922 L6.25 7.06547 C6.25 7.06547 6.25 6.51859 6.11813 6.29391 C6.11813 6.29391 5.92781 5.98141 5.50781 5.98141 C5.50781 5.98141 5.24906 5.98141 4.98781 6.11078 C4.98781 6.11078 4.72656 6.24016 4.35547 6.59172 L4.34578 6.64547 L4.35547 6.85547 L4.35547 8.98922 C4.35547 8.98922 4.35547 9.44828 4.40672 9.56062 C4.40672 9.56062 4.45797 9.67281 4.59953 9.74859 C4.59953 9.74859 4.74125 9.82422 5.08297 9.82422 L5.08297 10 L2.82234 10 L2.82234 9.82422 C2.82234 9.82422 3.19344 9.82422 3.3325 9.73641 C3.3325 9.73641 3.47172 9.64844 3.52547 9.47266 C3.52547 9.47266 3.54984 9.38969 3.54984 8.98922 L3.54984 7.06547 C3.54984 7.06547 3.54984 6.51859 3.38875 6.27922 C3.38875 6.27922 3.17391 5.96672 2.78812 5.96672 C2.78812 5.96672 2.52438 5.96672 2.26562 6.10844 C2.26562 6.10844 1.86031 6.32328 1.64062 6.59172 L1.64062 8.98922 C1.64062 8.98922 1.64062 9.42875 1.70156 9.56062 C1.70156 9.56062 1.76266 9.69234 1.88234 9.75828 C1.88234 9.75828 2.00203 9.82422 2.36813 9.82422 L2.36813 10 L0.15625 10 L0.15625 9.82422 C0.15625 9.82422 0.463906 9.82422 0.585938 9.75828 C0.585938 9.75828 0.707969 9.69234 0.771406 9.54828 C0.771406 9.54828 0.835 9.40422 0.835 8.98922 L0.835 7.28031 C0.835 7.28031 0.835 6.54297 0.791094 6.32812 C0.791094 6.32812 0.756875 6.16703 0.683594 6.10594 C0.683594 6.10594 0.610313 6.04484 0.483438 6.04484 C0.483438 6.04484 0.346719 6.04484 0.15625 6.11813 L0.0829688 5.94234 L1.43063 5.39547 L1.64062 5.39547 L1.64062 6.34766 Z"/>
  <path id="GlTimesNewRomanPSMT65" d="M4.57516 7.78313 L2.01172 7.78313 L1.5625 8.82812 C1.5625 8.82812 1.39656 9.21391 1.39656 9.40422 C1.39656 9.40422 1.39656 9.55562 1.54047 9.67047 C1.54047 9.67047 1.68453 9.78516 2.16312 9.81938 L2.16312 10 L0.078125 10 L0.078125 9.81938 C0.078125 9.81938 0.493125 9.74609 0.615313 9.62891 C0.615313 9.62891 0.864219 9.39453 1.16703 8.67672 L3.49609 3.2275 L3.66703 3.2275 L5.97172 8.73531 C5.97172 8.73531 6.25 9.39937 6.47703 9.59719 C6.47703 9.59719 6.70406 9.79484 7.10938 9.81938 L7.10938 10 L4.49703 10 L4.49703 9.81938 C4.49703 9.81938 4.89266 9.79984 5.03172 9.6875 C5.03172 9.6875 5.17094 9.57516 5.17094 9.41406 C5.17094 9.41406 5.17094 9.19922 4.97562 8.73531 L4.57516 7.78313 L4.57516 7.78313 Z M4.43844 7.42188 L3.31547 4.74609 L2.16312 7.42188 L4.43844 7.42188 Z"/>
  <path id="GlTimesNewRomanPSMT67" d="M6.02047 3.2275 L6.17188 5.47844 L6.02047 5.47844 C6.02047 5.47844 5.71781 4.46781 5.15625 4.02344 C5.15625 4.02344 4.59469 3.57906 3.80859 3.57906 C3.80859 3.57906 3.14938 3.57906 2.61719 3.91359 C2.61719 3.91359 2.085 4.24797 1.77984 4.98047 C1.77984 4.98047 1.47469 5.71281 1.47469 6.80172 C1.47469 6.80172 1.47469 7.70016 1.76266 8.35938 C1.76266 8.35938 2.05078 9.01859 2.62938 9.37016 C2.62938 9.37016 3.20797 9.72172 3.95016 9.72172 C3.95016 9.72172 4.59469 9.72172 5.08781 9.44578 C5.08781 9.44578 5.58109 9.16984 6.17188 8.34953 L6.32328 8.44719 C6.32328 8.44719 5.82516 9.33109 5.16109 9.74125 C5.16109 9.74125 4.49703 10.1514 3.58406 10.1514 C3.58406 10.1514 1.93844 10.1514 1.03516 8.93062 C1.03516 8.93062 0.361406 8.0225 0.361406 6.79203 C0.361406 6.79203 0.361406 5.80078 0.805625 4.97078 C0.805625 4.97078 1.25 4.14062 2.02875 3.68406 C2.02875 3.68406 2.80766 3.2275 3.73047 3.2275 C3.73047 3.2275 4.44828 3.2275 5.14656 3.57906 C5.14656 3.57906 5.35156 3.68656 5.43953 3.68656 C5.43953 3.68656 5.57125 3.68656 5.66891 3.59375 C5.66891 3.59375 5.79594 3.46188 5.84969 3.2275 L6.02047 3.2275 Z"/>
  <path id="GlTimesNewRomanPSMT114" d="M1.62109 5.39547 L1.62109 6.40141 C1.62109 6.40141 2.18266 5.39547 2.77344 5.39547 C2.77344 5.39547 3.04203 5.39547 3.21781 5.55906 C3.21781 5.55906 3.39359 5.72266 3.39359 5.9375 C3.39359 5.9375 3.39359 6.12797 3.26656 6.25984 C3.26656 6.25984 3.13969 6.39156 2.96391 6.39156 C2.96391 6.39156 2.79297 6.39156 2.58047 6.22312 C2.58047 6.22312 2.36813 6.05469 2.26562 6.05469 C2.26562 6.05469 2.17781 6.05469 2.07516 6.15234 C2.07516 6.15234 1.85547 6.3525 1.62109 6.81156 L1.62109 8.955 C1.62109 8.955 1.62109 9.32609 1.71391 9.51656 C1.71391 9.51656 1.77734 9.64844 1.93844 9.73641 C1.93844 9.73641 2.09969 9.82422 2.40234 9.82422 L2.40234 10 L0.112344 10 L0.112344 9.82422 C0.112344 9.82422 0.454063 9.82422 0.620156 9.71672 C0.620156 9.71672 0.742188 9.63859 0.791094 9.46781 C0.791094 9.46781 0.815469 9.38469 0.815469 8.99406 L0.815469 7.26078 C0.815469 7.26078 0.815469 6.47953 0.78375 6.33062 C0.78375 6.33062 0.752031 6.18156 0.666563 6.11328 C0.666563 6.11328 0.581094 6.04484 0.454063 6.04484 C0.454063 6.04484 0.302812 6.04484 0.112344 6.11813 L0.0634375 5.94234 L1.41609 5.39547 L1.62109 5.39547 Z"/>
  <path id="GlTimesNewRomanPSMT40" d="M3.10547 11.958 L3.10547 12.1387 C3.10547 12.1387 2.36813 11.7677 1.875 11.2695 C1.875 11.2695 1.17188 10.5616 0.790938 9.59969 C0.790938 9.59969 0.410156 8.63766 0.410156 7.6025 C0.410156 7.6025 0.410156 6.08891 1.15719 4.84141 C1.15719 4.84141 1.90437 3.59375 3.10547 3.05656 L3.10547 3.26172 C3.10547 3.26172 2.50484 3.59375 2.11906 4.17 C2.11906 4.17 1.73344 4.74609 1.54297 5.62984 C1.54297 5.62984 1.3525 6.51359 1.3525 7.47562 C1.3525 7.47562 1.3525 8.52047 1.51375 9.375 C1.51375 9.375 1.64062 10.0489 1.82125 10.4566 C1.82125 10.4566 2.00203 10.8642 2.30719 11.2402 C2.30719 11.2402 2.61234 11.6163 3.10547 11.958 Z"/>
  <path id="GlTimesNewRomanPSMT115" d="M3.20312 5.39547 L3.20312 6.91891 L3.04203 6.91891 C3.04203 6.91891 2.85641 6.20109 2.56594 5.94234 C2.56594 5.94234 2.27547 5.68359 1.82625 5.68359 C1.82625 5.68359 1.48438 5.68359 1.27438 5.86422 C1.27438 5.86422 1.06453 6.04484 1.06453 6.26469 C1.06453 6.26469 1.06453 6.53812 1.22078 6.73344 C1.22078 6.73344 1.37203 6.93359 1.83594 7.15813 L2.54891 7.50484 C2.54891 7.50484 3.54 7.98828 3.54 8.77922 C3.54 8.77922 3.54 9.38969 3.07859 9.76328 C3.07859 9.76328 2.61719 10.1367 2.04594 10.1367 C2.04594 10.1367 1.63578 10.1367 1.10844 9.99016 C1.10844 9.99016 0.947344 9.94141 0.844688 9.94141 C0.844688 9.94141 0.7325 9.94141 0.668906 10.0684 L0.507812 10.0684 L0.507812 8.47172 L0.668906 8.47172 C0.668906 8.47172 0.805625 9.15531 1.19141 9.50203 C1.19141 9.50203 1.57719 9.84859 2.05563 9.84859 C2.05563 9.84859 2.39266 9.84859 2.605 9.65094 C2.605 9.65094 2.81734 9.45312 2.81734 9.17484 C2.81734 9.17484 2.81734 8.83781 2.58047 8.60844 C2.58047 8.60844 2.34375 8.37891 1.63578 8.02734 C1.63578 8.02734 0.927813 7.67578 0.707969 7.3925 C0.707969 7.3925 0.488281 7.11422 0.488281 6.68938 C0.488281 6.68938 0.488281 6.13766 0.866719 5.76656 C0.866719 5.76656 1.24516 5.39547 1.84578 5.39547 C1.84578 5.39547 2.10938 5.39547 2.48531 5.50781 C2.48531 5.50781 2.73438 5.58109 2.81734 5.58109 C2.81734 5.58109 2.89547 5.58109 2.93938 5.54688 C2.93938 5.54688 2.98344 5.51266 3.04203 5.39547 L3.20312 5.39547 Z"/>
  <path id="GlTimesNewRomanPSMT80" d="M2.05078 6.89938 L2.05078 8.82812 C2.05078 8.82812 2.05078 9.45312 2.1875 9.60453 C2.1875 9.60453 2.37312 9.81938 2.74906 9.81938 L3.00297 9.81938 L3.00297 10 L0.166094 10 L0.166094 9.81938 L0.415 9.81938 C0.415 9.81938 0.835 9.81938 1.01562 9.54594 C1.01562 9.54594 1.11328 9.39453 1.11328 8.82812 L1.11328 4.55078 C1.11328 4.55078 1.11328 3.92578 0.981406 3.77438 C0.981406 3.77438 0.791094 3.55953 0.415 3.55953 L0.166094 3.55953 L0.166094 3.37891 L2.59281 3.37891 C2.59281 3.37891 3.48141 3.37891 3.99406 3.56203 C3.99406 3.56203 4.50687 3.74516 4.85844 4.17969 C4.85844 4.17969 5.21 4.61422 5.21 5.21 C5.21 5.21 5.21 6.02047 4.67531 6.52828 C4.67531 6.52828 4.14062 7.03609 3.16406 7.03609 C3.16406 7.03609 2.92484 7.03609 2.64641 7.00203 C2.64641 7.00203 2.36813 6.96781 2.05078 6.89938 L2.05078 6.89938 Z M2.05078 6.62109 C2.05078 6.62109 2.30953 6.66984 2.50969 6.69437 C2.50969 6.69437 2.71 6.71875 2.85156 6.71875 C2.85156 6.71875 3.35938 6.71875 3.72797 6.32578 C3.72797 6.32578 4.09672 5.93266 4.09672 5.30766 C4.09672 5.30766 4.09672 4.87797 3.92094 4.50937 C3.92094 4.50937 3.74516 4.14062 3.42281 3.9575 C3.42281 3.9575 3.10062 3.77438 2.69047 3.77438 C2.69047 3.77438 2.44141 3.77438 2.05078 3.86719 L2.05078 6.62109 Z"/>
  <path id="GlTimesNewRomanPSMT121" d="M0.0585938 5.52734 L2.14359 5.52734 L2.14359 5.70797 L2.04109 5.70797 C2.04109 5.70797 1.82125 5.70797 1.71141 5.80328 C1.71141 5.80328 1.60156 5.89844 1.60156 6.04 C1.60156 6.04 1.60156 6.23047 1.76266 6.56734 L2.85156 8.82328 L3.8525 6.3525 C3.8525 6.3525 3.93562 6.15234 3.93562 5.95703 C3.93562 5.95703 3.93562 5.86906 3.90141 5.82516 C3.90141 5.82516 3.86234 5.77141 3.77922 5.73969 C3.77922 5.73969 3.69625 5.70797 3.48641 5.70797 L3.48641 5.52734 L4.94141 5.52734 L4.94141 5.70797 C4.94141 5.70797 4.76078 5.7275 4.66312 5.78609 C4.66312 5.78609 4.56547 5.84469 4.44828 6.00578 C4.44828 6.00578 4.40437 6.07422 4.28219 6.38187 L2.46094 10.8447 C2.46094 10.8447 2.19734 11.4942 1.77 11.8262 C1.77 11.8262 1.34281 12.1583 0.947344 12.1583 C0.947344 12.1583 0.659219 12.1583 0.473594 11.9922 C0.473594 11.9922 0.288125 11.8262 0.288125 11.6114 C0.288125 11.6114 0.288125 11.4062 0.422344 11.2817 C0.422344 11.2817 0.556719 11.1572 0.791094 11.1572 C0.791094 11.1572 0.952187 11.1572 1.23047 11.2647 C1.23047 11.2647 1.42578 11.338 1.47469 11.338 C1.47469 11.338 1.62109 11.338 1.79438 11.1866 C1.79438 11.1866 1.96781 11.0352 2.14359 10.6006 L2.46094 9.82422 L0.854531 6.45016 C0.854531 6.45016 0.78125 6.29875 0.620156 6.07422 C0.620156 6.07422 0.498125 5.90328 0.42 5.84469 C0.42 5.84469 0.307656 5.76656 0.0585938 5.70797 L0.0585938 5.52734 Z"/>
  <path id="GlTimesNewRomanPSMT41" d="M0.224688 3.26172 L0.224688 3.05656 C0.224688 3.05656 0.966875 3.42281 1.46 3.92094 C1.46 3.92094 2.15828 4.63375 2.53906 5.59328 C2.53906 5.59328 2.92 6.55266 2.92 7.59281 C2.92 7.59281 2.92 9.10641 2.17531 10.3539 C2.17531 10.3539 1.43063 11.6016 0.224688 12.1387 L0.224688 11.958 C0.224688 11.958 0.825156 11.6211 1.21328 11.0473 C1.21328 11.0473 1.60156 10.4736 1.78953 9.58734 C1.78953 9.58734 1.9775 8.70109 1.9775 7.73922 C1.9775 7.73922 1.9775 6.69922 1.81641 5.83984 C1.81641 5.83984 1.69437 5.16594 1.51125 4.76078 C1.51125 4.76078 1.32812 4.35547 1.02531 3.97953 C1.02531 3.97953 0.722656 3.60344 0.224688 3.26172 Z"/>
  <path id="GlTimesNewRomanPSMT83" d="M4.585 3.2275 L4.585 5.5175 L4.40437 5.5175 C4.40437 5.5175 4.31641 4.85844 4.08938 4.46781 C4.08938 4.46781 3.86234 4.07719 3.44234 3.84766 C3.44234 3.84766 3.0225 3.61813 2.57328 3.61813 C2.57328 3.61813 2.06547 3.61813 1.73344 3.92828 C1.73344 3.92828 1.40141 4.23828 1.40141 4.63375 C1.40141 4.63375 1.40141 4.93656 1.61141 5.18547 C1.61141 5.18547 1.91406 5.55172 3.05172 6.16203 C3.05172 6.16203 3.97953 6.66016 4.31891 6.92625 C4.31891 6.92625 4.65828 7.19234 4.84125 7.55375 C4.84125 7.55375 5.02438 7.915 5.02438 8.31047 C5.02438 8.31047 5.02438 9.0625 4.44094 9.60703 C4.44094 9.60703 3.8575 10.1514 2.93953 10.1514 C2.93953 10.1514 2.65141 10.1514 2.3975 10.1075 C2.3975 10.1075 2.24609 10.083 1.77 9.92922 C1.77 9.92922 1.29391 9.77531 1.16703 9.77531 C1.16703 9.77531 1.045 9.77531 0.974063 9.84859 C0.974063 9.84859 0.903281 9.92188 0.869219 10.1514 L0.688438 10.1514 L0.688438 7.88078 L0.869219 7.88078 C0.869219 7.88078 0.996094 8.59375 1.21094 8.94781 C1.21094 8.94781 1.42578 9.30172 1.86766 9.53609 C1.86766 9.53609 2.30953 9.77047 2.83688 9.77047 C2.83688 9.77047 3.44734 9.77047 3.80125 9.44828 C3.80125 9.44828 4.15531 9.12594 4.15531 8.68656 C4.15531 8.68656 4.15531 8.44234 4.02094 8.19344 C4.02094 8.19344 3.88672 7.94437 3.60359 7.72953 C3.60359 7.72953 3.41312 7.58297 2.56344 7.10688 C2.56344 7.10688 1.71391 6.63078 1.355 6.34766 C1.355 6.34766 0.996094 6.06438 0.810469 5.72266 C0.810469 5.72266 0.625 5.38078 0.625 4.97063 C0.625 4.97063 0.625 4.25781 1.17188 3.74266 C1.17188 3.74266 1.71875 3.2275 2.56344 3.2275 C2.56344 3.2275 3.09078 3.2275 3.68172 3.48625 C3.68172 3.48625 3.95516 3.60844 4.06734 3.60844 C4.06734 3.60844 4.19437 3.60844 4.27484 3.53281 C4.27484 3.53281 4.35547 3.45703 4.40437 3.2275 L4.585 3.2275 Z"/>
  <path id="GlTimesNewRomanPSMT122" d="M4.19922 8.62797 L4.14547 10 L0.200156 10 L0.200156 9.82422 L3.16891 5.86906 L1.70406 5.86906 C1.70406 5.86906 1.23047 5.86906 1.08391 5.93016 C1.08391 5.93016 0.9375 5.99125 0.844688 6.16203 C0.844688 6.16203 0.712969 6.40625 0.693438 6.7675 L0.498125 6.7675 L0.527344 5.52734 L4.27734 5.52734 L4.27734 5.70797 L1.27937 9.67281 L2.91016 9.67281 C2.91016 9.67281 3.42281 9.67281 3.60594 9.58734 C3.60594 9.58734 3.78906 9.50188 3.90141 9.28703 C3.90141 9.28703 3.97953 9.13078 4.03328 8.62797 L4.19922 8.62797 Z"/>
  <path id="GlTimesNewRomanPS-ItalicMT102" d="M2.96391 5.69828 L2.87594 6.02047 L2.16312 6.02047 L1.62594 8.15422 C1.62594 8.15422 1.26953 9.56547 0.908281 10.3369 C0.908281 10.3369 0.395469 11.4258 -0.195312 11.8408 C-0.195312 11.8408 -0.644531 12.1583 -1.09375 12.1583 C-1.09375 12.1583 -1.38672 12.1583 -1.59187 11.9825 C-1.59187 11.9825 -1.74313 11.8603 -1.74313 11.665 C-1.74313 11.665 -1.74313 11.5087 -1.61859 11.3941 C-1.61859 11.3941 -1.49422 11.2794 -1.31344 11.2794 C-1.31344 11.2794 -1.18172 11.2794 -1.09125 11.3623 C-1.09125 11.3623 -1.00094 11.4453 -1.00094 11.5528 C-1.00094 11.5528 -1.00094 11.6602 -1.10359 11.753 C-1.10359 11.753 -1.18172 11.8212 -1.18172 11.8555 C-1.18172 11.8555 -1.18172 11.8994 -1.1475 11.9239 C-1.1475 11.9239 -1.10359 11.958 -1.01078 11.958 C-1.01078 11.958 -0.800781 11.958 -0.56875 11.8261 C-0.56875 11.8261 -0.336875 11.6944 -0.15625 11.4331 C-0.15625 11.4331 0.024375 11.1719 0.185625 10.6788 C0.185625 10.6788 0.253906 10.4736 0.551719 9.32609 L1.40141 6.02047 L0.551719 6.02047 L0.620156 5.69828 C0.620156 5.69828 1.02547 5.69828 1.18656 5.64219 C1.18656 5.64219 1.34766 5.58594 1.48188 5.42734 C1.48188 5.42734 1.61625 5.26859 1.83109 4.83391 C1.83109 4.83391 2.11922 4.24797 2.38281 3.92578 C2.38281 3.92578 2.74422 3.49125 3.14203 3.27391 C3.14203 3.27391 3.54 3.05656 3.89156 3.05656 C3.89156 3.05656 4.26266 3.05656 4.48719 3.24469 C4.48719 3.24469 4.71188 3.43266 4.71188 3.65234 C4.71188 3.65234 4.71188 3.82328 4.59953 3.94047 C4.59953 3.94047 4.48734 4.05766 4.31156 4.05766 C4.31156 4.05766 4.16016 4.05766 4.06484 3.96984 C4.06484 3.96984 3.96969 3.88187 3.96969 3.75969 C3.96969 3.75969 3.96969 3.68156 4.03313 3.56687 C4.03313 3.56687 4.09672 3.45219 4.09672 3.41312 C4.09672 3.41312 4.09672 3.34469 4.05281 3.31047 C4.05281 3.31047 3.98922 3.26172 3.86719 3.26172 C3.86719 3.26172 3.55953 3.26172 3.31547 3.45703 C3.31547 3.45703 2.98828 3.71578 2.72953 4.2675 C2.72953 4.2675 2.59766 4.55563 2.24609 5.69828 L2.96391 5.69828 Z"/>
  <path id="GlTimesNewRomanPS-ItalicMT111" d="M4.62406 7.10938 C4.62406 7.10938 4.62406 7.84172 4.23578 8.55953 C4.23578 8.55953 3.84766 9.27734 3.15422 9.69734 C3.15422 9.69734 2.46094 10.1172 1.80672 10.1172 C1.80672 10.1172 1.13766 10.1172 0.715313 9.69 C0.715313 9.69 0.292969 9.26266 0.292969 8.58391 C0.292969 8.58391 0.292969 7.86625 0.705469 7.14359 C0.705469 7.14359 1.11813 6.42094 1.80906 6.00109 C1.80906 6.00109 2.5 5.58109 3.14453 5.58109 C3.14453 5.58109 3.78906 5.58109 4.20656 6.00594 C4.20656 6.00594 4.62406 6.43063 4.62406 7.10938 L4.62406 7.10938 Z M3.81344 6.7725 C3.81344 6.7725 3.81344 6.31828 3.59125 6.07672 C3.59125 6.07672 3.36922 5.835 3.01766 5.835 C3.01766 5.835 2.29984 5.835 1.69672 6.86281 C1.69672 6.86281 1.09375 7.89062 1.09375 8.90625 C1.09375 8.90625 1.09375 9.37016 1.32812 9.62156 C1.32812 9.62156 1.5625 9.87297 1.91891 9.87297 C1.91891 9.87297 2.6075 9.87297 3.21047 8.85016 C3.21047 8.85016 3.81344 7.82719 3.81344 6.7725 Z"/>
  <path id="GlTimesNewRomanPS-ItalicMT114" d="M0.5225 5.85453 L2.20703 5.58109 L1.50391 7.95406 C1.50391 7.95406 2.35844 6.49406 3.05672 5.91312 C3.05672 5.91312 3.45219 5.58109 3.70125 5.58109 C3.70125 5.58109 3.86234 5.58109 3.955 5.67625 C3.955 5.67625 4.04781 5.77141 4.04781 5.95219 C4.04781 5.95219 4.04781 6.27438 3.88187 6.56734 C3.88187 6.56734 3.76469 6.78703 3.545 6.78703 C3.545 6.78703 3.43266 6.78703 3.35203 6.71391 C3.35203 6.71391 3.27156 6.64062 3.25203 6.48922 C3.25203 6.48922 3.24219 6.39641 3.20797 6.36719 C3.20797 6.36719 3.16891 6.32812 3.11531 6.32812 C3.11531 6.32812 3.03219 6.32812 2.95906 6.36719 C2.95906 6.36719 2.83203 6.43547 2.57328 6.74797 C2.57328 6.74797 2.16797 7.22656 1.69437 7.98828 C1.69437 7.98828 1.48922 8.31047 1.34281 8.71578 C1.34281 8.71578 1.13766 9.2725 1.10844 9.38469 L0.952187 10 L0.205156 10 L1.10844 6.96781 C1.10844 6.96781 1.26469 6.44047 1.26469 6.21578 C1.26469 6.21578 1.26469 6.12797 1.19141 6.06937 C1.19141 6.06937 1.09375 5.99125 0.932656 5.99125 C0.932656 5.99125 0.830156 5.99125 0.556719 6.03516 L0.5225 5.85453 Z"/>
  <path id="GlTimesNewRomanPS-ItalicMT110" d="M2.20703 5.58109 L1.55766 7.80266 C1.55766 7.80266 2.47078 6.44047 2.95656 6.01078 C2.95656 6.01078 3.44234 5.58109 3.89156 5.58109 C3.89156 5.58109 4.13578 5.58109 4.29438 5.74219 C4.29438 5.74219 4.45312 5.90328 4.45312 6.16203 C4.45312 6.16203 4.45312 6.455 4.31156 6.94328 L3.71578 8.99906 C3.71578 8.99906 3.61328 9.35547 3.61328 9.43359 C3.61328 9.43359 3.61328 9.50188 3.65234 9.54828 C3.65234 9.54828 3.69141 9.59469 3.73531 9.59469 C3.73531 9.59469 3.79391 9.59469 3.87703 9.53125 C3.87703 9.53125 4.13578 9.32609 4.44344 8.90625 L4.59469 8.99906 C4.59469 8.99906 4.14062 9.64844 3.73531 9.92672 C3.73531 9.92672 3.45219 10.1172 3.2275 10.1172 C3.2275 10.1172 3.04688 10.1172 2.93938 10.0073 C2.93938 10.0073 2.83203 9.8975 2.83203 9.71187 C2.83203 9.71187 2.83203 9.4775 2.99812 8.90625 L3.56453 6.94328 C3.56453 6.94328 3.67188 6.57719 3.67188 6.37203 C3.67188 6.37203 3.67188 6.27438 3.60844 6.21344 C3.60844 6.21344 3.545 6.15234 3.45219 6.15234 C3.45219 6.15234 3.31547 6.15234 3.125 6.26953 C3.125 6.26953 2.76375 6.48922 2.37312 6.99469 C2.37312 6.99469 1.9825 7.5 1.54781 8.28609 C1.54781 8.28609 1.31844 8.70109 1.16703 9.19438 L0.922813 10 L0.190469 10 L1.07906 6.94328 C1.07906 6.94328 1.23531 6.39156 1.23531 6.27922 C1.23531 6.27922 1.23531 6.17188 1.14984 6.09141 C1.14984 6.09141 1.06453 6.01078 0.9375 6.01078 C0.9375 6.01078 0.878906 6.01078 0.7325 6.03031 L0.546875 6.05953 L0.517656 5.88375 L2.20703 5.58109 Z"/>
  <path id="GlTimesNewRomanPS-ItalicMT119" d="M4.18953 5.58109 L4.52641 9.24312 C4.52641 9.24312 5.37594 8.24703 5.88375 7.37297 C5.88375 7.37297 6.18172 6.86031 6.18172 6.63078 C6.18172 6.63078 6.18172 6.52344 6.13281 6.44047 C6.13281 6.44047 6.11328 6.39641 5.97891 6.31109 C5.97891 6.31109 5.84469 6.22562 5.79094 6.13531 C5.79094 6.13531 5.73734 6.04484 5.73734 5.94234 C5.73734 5.94234 5.73734 5.79094 5.84953 5.68609 C5.84953 5.68609 5.96188 5.58109 6.13766 5.58109 C6.13766 5.58109 6.33797 5.58109 6.47703 5.73 C6.47703 5.73 6.61625 5.87891 6.61625 6.12797 C6.61625 6.12797 6.61625 6.38187 6.54297 6.60156 C6.54297 6.60156 6.39656 7.02141 5.97172 7.68547 C5.97172 7.68547 5.45406 8.48141 4.90469 9.16266 C4.90469 9.16266 4.35547 9.84375 4.08688 10.1172 L3.90625 10.1172 L3.58891 6.73828 L1.57234 10.1172 L1.3575 10.1172 C1.3575 10.1172 1.32328 8.03219 1.1475 6.82609 C1.1475 6.82609 1.07422 6.32328 0.903281 6.16703 C0.903281 6.16703 0.78125 6.05469 0.532188 6.05469 C0.532188 6.05469 0.390625 6.05469 0.170937 6.08391 L0.170937 5.90813 L1.57234 5.58109 C1.57234 5.58109 1.86531 6.39641 1.95312 8.08594 C1.95312 8.08594 1.9825 8.72563 2.00203 8.89156 L4.00875 5.58109 L4.18953 5.58109 Z"/>
  <path id="GlTimesNewRomanPS-ItalicMT108" d="M2.97359 3.05656 L1.30375 8.86719 C1.30375 8.86719 1.18172 9.30172 1.18172 9.39937 C1.18172 9.39937 1.18172 9.47266 1.22797 9.52156 C1.22797 9.52156 1.27438 9.57031 1.34281 9.57031 C1.34281 9.57031 1.43562 9.57031 1.54297 9.48734 C1.54297 9.48734 1.79688 9.28703 2.07516 8.86719 L2.22172 9.01859 C2.22172 9.01859 1.75781 9.67281 1.36719 9.93156 C1.36719 9.93156 1.07906 10.1172 0.820312 10.1172 C0.820312 10.1172 0.634844 10.1172 0.510313 9.99031 C0.510313 9.99031 0.385781 9.86328 0.385781 9.69719 C0.385781 9.69719 0.385781 9.52141 0.542031 8.97453 L1.86531 4.39453 C1.86531 4.39453 2.02641 3.83297 2.02641 3.75 C2.02641 3.75 2.02641 3.63281 1.93359 3.55719 C1.93359 3.55719 1.84078 3.48141 1.64547 3.48141 C1.64547 3.48141 1.53328 3.48141 1.30375 3.51562 L1.30375 3.335 L2.97359 3.05656 Z"/>
  <path id="GlTimesNewRomanPS-ItalicMT121" d="M1.59672 5.58109 C1.59672 5.58109 1.76266 5.86422 1.82609 6.11078 C1.82609 6.11078 1.88969 6.35734 1.95312 7.08 L2.16797 9.48234 C2.16797 9.48234 2.46094 9.13078 3.01766 8.36906 C3.01766 8.36906 3.28609 7.99797 3.68172 7.35844 C3.68172 7.35844 3.92094 6.96781 3.97469 6.81156 C3.97469 6.81156 4.00391 6.73344 4.00391 6.65031 C4.00391 6.65031 4.00391 6.59672 3.96969 6.5625 C3.96969 6.5625 3.93562 6.52828 3.79156 6.48188 C3.79156 6.48188 3.6475 6.43547 3.55219 6.31109 C3.55219 6.31109 3.45703 6.18656 3.45703 6.02531 C3.45703 6.02531 3.45703 5.82516 3.57422 5.70312 C3.57422 5.70312 3.69141 5.58109 3.86719 5.58109 C3.86719 5.58109 4.08203 5.58109 4.23344 5.75938 C4.23344 5.75938 4.38484 5.9375 4.38484 6.25 C4.38484 6.25 4.38484 6.63578 4.12109 7.13141 C4.12109 7.13141 3.8575 7.62688 3.10547 8.65234 C3.10547 8.65234 2.35359 9.67766 1.28422 10.8887 C1.28422 10.8887 0.546875 11.7236 0.190312 11.9409 C0.190312 11.9409 -0.166094 12.1583 -0.42 12.1583 C-0.42 12.1583 -0.57125 12.1583 -0.685937 12.0434 C-0.685937 12.0434 -0.800781 11.9288 -0.800781 11.7773 C-0.800781 11.7773 -0.800781 11.5869 -0.642031 11.4306 C-0.642031 11.4306 -0.483438 11.2744 -0.297812 11.2744 C-0.297812 11.2744 -0.200156 11.2744 -0.136719 11.3184 C-0.136719 11.3184 -0.0976562 11.3428 -0.05125 11.4575 C-0.05125 11.4575 -0.00484375 11.5723 0.0342187 11.6114 C0.0342187 11.6114 0.0585938 11.6358 0.0928125 11.6358 C0.0928125 11.6358 0.122031 11.6358 0.195312 11.5869 C0.195312 11.5869 0.463906 11.4209 0.820312 11.0595 C0.820312 11.0595 1.28906 10.5811 1.51375 10.2783 L1.24031 7.18266 C1.24031 7.18266 1.17188 6.41594 1.03516 6.25 C1.03516 6.25 0.898438 6.08391 0.57625 6.08391 C0.57625 6.08391 0.473594 6.08391 0.21 6.11328 L0.166094 5.93266 L1.59672 5.58109 Z"/>
  <path id="GlTimesNewRomanPS-ItalicMT46" d="M0.830156 9.12594 C0.830156 9.12594 1.04 9.12594 1.18406 9.27 C1.18406 9.27 1.32812 9.41406 1.32812 9.61906 C1.32812 9.61906 1.32812 9.82422 1.18156 9.96828 C1.18156 9.96828 1.03516 10.1123 0.830156 10.1123 C0.830156 10.1123 0.625 10.1123 0.480938 9.96828 C0.480938 9.96828 0.336875 9.82422 0.336875 9.61906 C0.336875 9.61906 0.336875 9.41406 0.480938 9.27 C0.480938 9.27 0.625 9.12594 0.830156 9.12594 Z"/>
 </defs>
 <g id="Background">
  <path style="fill:none;stroke:#8ec14d; stroke-width:1; stroke-linecap:butt; stroke-linejoin:miter; stroke-dasharray:4, 2;" d="M0 0 L198.938 0 L198.938 44.4375 L0 44.4375 L0 0 Z" transform="translate(136.562, 148.938)"/>
  <path style="fill:none;stroke:#f39100; stroke-width:1; stroke-linecap:butt; stroke-linejoin:miter; stroke-dasharray:none;" d="M121.125 30.8125 C121.125 47.8304 94.0115 61.625 60.5625 61.625 C27.1148 61.625 0 47.8304 0 30.8125 C0 13.7952 27.1148 0 60.5625 0 C94.0115 0 121.125 13.7952 121.125 30.8125 Z" transform="translate(241.375, 205.875)"/>
  <path style="fill:none;stroke:#009ee0; stroke-width:1; stroke-linecap:butt; stroke-linejoin:miter; stroke-dasharray:none;" d="M0 0 L77.0625 0 L77.0625 28.875 L0 28.875 L0 0 Z" transform="translate(285.562, 88)"/>
  <path style="fill:none;stroke:#f39100; stroke-width:1; stroke-linecap:butt; stroke-linejoin:miter; stroke-dasharray:none;" d="M81.75 22.5 C81.75 34.9269 63.4505 45 40.875 45 C18.3004 45 0 34.9269 0 22.5 C0 10.0736 18.3004 0 40.875 0 C63.4505 0 81.75 10.0736 81.75 22.5 Z" transform="translate(96.375, 10.875)"/>
  <g transform="translate(117.563, 27.5)">
   <use style="fill:#161413;stroke:none;" xlink:href="#GlTimesNewRomanPSMT87" transform="matrix(1.2 0 0 1.2 0 -3.65797)"/>
   <use style="fill:#161413;stroke:none;" xlink:href="#GlTimesNewRomanPSMT105" transform="matrix(1.2 0 0 1.2 11.3262 -3.65797)"/>
   <use style="fill:#161413;stroke:none;" xlink:href="#GlTimesNewRomanPSMT110" transform="matrix(1.2 0 0 1.2 14.6602 -3.65797)"/>
   <use style="fill:#161413;stroke:none;" xlink:href="#GlTimesNewRomanPSMT100" transform="matrix(1.2 0 0 1.2 20.6602 -3.65797)"/>
   <use style="fill:#161413;stroke:none;" xlink:href="#GlTimesNewRomanPSMT111" transform="matrix(1.2 0 0 1.2 26.6602 -3.65797)"/>
   <use style="fill:#161413;stroke:none;" xlink:href="#GlTimesNewRomanPSMT119" transform="matrix(1.2 0 0 1.2 32.6602 -3.65797)"/>
   <path style="fill:none; stroke:none;" d="M0 0 L53.4375 0 L53.4375 22.5938 L0 22.5938 L0 0 Z"/>
  </g>
  <path style="fill:none;stroke:#f39100; stroke-width:1; stroke-linecap:butt; stroke-linejoin:miter; stroke-dasharray:none;" d="M81.75 22.5 C81.75 34.9269 63.4505 45 40.875 45 C18.3004 45 0 34.9269 0 22.5 C0 10.0736 18.3004 0 40.875 0 C63.4505 0 81.75 10.0736 81.75 22.5 Z" transform="translate(6.375, 141.875)"/>
  <g transform="translate(28.125, 153.5)">
   <use style="fill:#161413;stroke:none;" xlink:href="#GlTimesNewRomanPSMT66" transform="matrix(1.2 0 0 1.2 0 -4.05469)"/>
   <use style="fill:#161413;stroke:none;" xlink:href="#GlTimesNewRomanPSMT117" transform="matrix(1.2 0 0 1.2 8.00391 -4.05469)"/>
   <use style="fill:#161413;stroke:none;" xlink:href="#GlTimesNewRomanPSMT116" transform="matrix(1.2 0 0 1.2 14.0039 -4.05469)"/>
   <use style="fill:#161413;stroke:none;" xlink:href="#GlTimesNewRomanPSMT116" transform="matrix(1.2 0 0 1.2 17.3379 -4.05469)"/>
   <use style="fill:#161413;stroke:none;" xlink:href="#GlTimesNewRomanPSMT111" transform="matrix(1.2 0 0 1.2 20.6719 -4.05469)"/>
   <use style="fill:#161413;stroke:none;" xlink:href="#GlTimesNewRomanPSMT110" transform="matrix(1.2 0 0 1.2 26.6719 -4.05469)"/>
   <use style="fill:#161413;stroke:none;" xlink:href="#GlTimesNewRomanPSMT44" transform="matrix(1.2 0 0 1.2 32.6719 -4.05469)"/>
   <use style="fill:#161413;stroke:none;" xlink:href="#GlTimesNewRomanPSMT76" transform="matrix(1.2 0 0 1.2 0 10.9453)"/>
   <use style="fill:#161413;stroke:none;" xlink:href="#GlTimesNewRomanPSMT97" transform="matrix(1.2 0 0 1.2 7.33008 10.9453)"/>
   <use style="fill:#161413;stroke:none;" xlink:href="#GlTimesNewRomanPSMT98" transform="matrix(1.2 0 0 1.2 12.6562 10.9453)"/>
   <use style="fill:#161413;stroke:none;" xlink:href="#GlTimesNewRomanPSMT101" transform="matrix(1.2 0 0 1.2 18.6562 10.9453)"/>
   <use style="fill:#161413;stroke:none;" xlink:href="#GlTimesNewRomanPSMT108" transform="matrix(1.2 0 0 1.2 23.9824 10.9453)"/>
   <use style="fill:#161413;stroke:none;" xlink:href="#GlTimesNewRomanPSMT44" transform="matrix(1.2 0 0 1.2 27.3164 10.9453)"/>
   <use style="fill:#161413;stroke:none;" xlink:href="#GlTimesNewRomanPSMT46" transform="matrix(1.2 0 0 1.2 30.3164 10.9453)"/>
   <use style="fill:#161413;stroke:none;" xlink:href="#GlTimesNewRomanPSMT46" transform="matrix(1.2 0 0 1.2 33.3164 10.9453)"/>
   <use style="fill:#161413;stroke:none;" xlink:href="#GlTimesNewRomanPSMT46" transform="matrix(1.2 0 0 1.2 36.3164 10.9453)"/>
   <path style="fill:none; stroke:none;" d="M0 0 L64.875 0 L64.875 43.625 L0 43.625 L0 0 Z"/>
  </g>
  <g transform="translate(112.562, 95.5)">
   <use style="fill:#161413;stroke:none;" xlink:href="#GlTimesNewRomanPSMT69" transform="matrix(1.2 0 0 1.2 0 -3.65797)"/>
   <use style="fill:#161413;stroke:none;" xlink:href="#GlTimesNewRomanPSMT108" transform="matrix(1.2 0 0 1.2 7.33008 -3.65797)"/>
   <use style="fill:#161413;stroke:none;" xlink:href="#GlTimesNewRomanPSMT101" transform="matrix(1.2 0 0 1.2 10.6641 -3.65797)"/>
   <use style="fill:#161413;stroke:none;" xlink:href="#GlTimesNewRomanPSMT109" transform="matrix(1.2 0 0 1.2 15.9902 -3.65797)"/>
   <use style="fill:#161413;stroke:none;" xlink:href="#GlTimesNewRomanPSMT101" transform="matrix(1.2 0 0 1.2 25.3242 -3.65797)"/>
   <use style="fill:#161413;stroke:none;" xlink:href="#GlTimesNewRomanPSMT110" transform="matrix(1.2 0 0 1.2 30.6504 -3.65797)"/>
   <use style="fill:#161413;stroke:none;" xlink:href="#GlTimesNewRomanPSMT116" transform="matrix(1.2 0 0 1.2 36.6504 -3.65797)"/>
   <path style="fill:none; stroke:none;" d="M0 0 L53.4375 0 L53.4375 22.5938 L0 22.5938 L0 0 Z"/>
  </g>
  <path style="fill:none;stroke:#009ee0; stroke-width:1; stroke-linecap:butt; stroke-linejoin:miter; stroke-dasharray:none;" d="M0 0 L77.0625 0 L77.0625 28.875 L0 28.875 L0 0 Z" transform="translate(97.5625, 87)"/>
  <g transform="translate(292.562, 96.5)">
   <use style="fill:#161413;stroke:none;" xlink:href="#GlTimesNewRomanPSMT65" transform="matrix(1.2 0 0 1.2 0 -3.65797)"/>
   <use style="fill:#161413;stroke:none;" xlink:href="#GlTimesNewRomanPSMT110" transform="matrix(1.2 0 0 1.2 8.66602 -3.65797)"/>
   <use style="fill:#161413;stroke:none;" xlink:href="#GlTimesNewRomanPSMT105" transform="matrix(1.2 0 0 1.2 14.666 -3.65797)"/>
   <use style="fill:#161413;stroke:none;" xlink:href="#GlTimesNewRomanPSMT109" transform="matrix(1.2 0 0 1.2 18 -3.65797)"/>
   <use style="fill:#161413;stroke:none;" xlink:href="#GlTimesNewRomanPSMT97" transform="matrix(1.2 0 0 1.2 27.334 -3.65797)"/>
   <use style="fill:#161413;stroke:none;" xlink:href="#GlTimesNewRomanPSMT116" transform="matrix(1.2 0 0 1.2 32.6602 -3.65797)"/>
   <use style="fill:#161413;stroke:none;" xlink:href="#GlTimesNewRomanPSMT101" transform="matrix(1.2 0 0 1.2 35.9941 -3.65797)"/>
   <use style="fill:#161413;stroke:none;" xlink:href="#GlTimesNewRomanPSMT97" transform="matrix(1.2 0 0 1.2 41.3203 -3.65797)"/>
   <use style="fill:#161413;stroke:none;" xlink:href="#GlTimesNewRomanPSMT98" transform="matrix(1.2 0 0 1.2 46.6465 -3.65797)"/>
   <use style="fill:#161413;stroke:none;" xlink:href="#GlTimesNewRomanPSMT108" transform="matrix(1.2 0 0 1.2 52.6465 -3.65797)"/>
   <use style="fill:#161413;stroke:none;" xlink:href="#GlTimesNewRomanPSMT101" transform="matrix(1.2 0 0 1.2 55.9805 -3.65797)"/>
   <path style="fill:none; stroke:none;" d="M0 0 L67.0625 0 L67.0625 17.6875 L0 17.6875 L0 0 Z"/>
  </g>
  <path style="fill:none;stroke:#8ec14d; stroke-width:1; stroke-linecap:butt; stroke-linejoin:miter; stroke-dasharray:none;" d="M0 0 L105.125 0 L105.125 35.125 L0 35.125 L0 0 Z" transform="translate(140.562, 153)"/>
  <g transform="translate(145.562, 156.5)">
   <use style="fill:#161413;stroke:none;" xlink:href="#GlTimesNewRomanPSMT67" transform="matrix(1.2 0 0 1.2 0 -3.65797)"/>
   <use style="fill:#161413;stroke:none;" xlink:href="#GlTimesNewRomanPSMT111" transform="matrix(1.2 0 0 1.2 8.00391 -3.65797)"/>
   <use style="fill:#161413;stroke:none;" xlink:href="#GlTimesNewRomanPSMT110" transform="matrix(1.2 0 0 1.2 14.0039 -3.65797)"/>
   <use style="fill:#161413;stroke:none;" xlink:href="#GlTimesNewRomanPSMT116" transform="matrix(1.2 0 0 1.2 20.0039 -3.65797)"/>
   <use style="fill:#161413;stroke:none;" xlink:href="#GlTimesNewRomanPSMT97" transform="matrix(1.2 0 0 1.2 23.3379 -3.65797)"/>
   <use style="fill:#161413;stroke:none;" xlink:href="#GlTimesNewRomanPSMT105" transform="matrix(1.2 0 0 1.2 28.6641 -3.65797)"/>
   <use style="fill:#161413;stroke:none;" xlink:href="#GlTimesNewRomanPSMT110" transform="matrix(1.2 0 0 1.2 31.998 -3.65797)"/>
   <use style="fill:#161413;stroke:none;" xlink:href="#GlTimesNewRomanPSMT101" transform="matrix(1.2 0 0 1.2 37.998 -3.65797)"/>
   <use style="fill:#161413;stroke:none;" xlink:href="#GlTimesNewRomanPSMT114" transform="matrix(1.2 0 0 1.2 43.3242 -3.65797)"/>
   <use style="fill:#161413;stroke:none;" xlink:href="#GlTimesNewRomanPSMT40" transform="matrix(1.2 0 0 1.2 0 11.342)"/>
   <use style="fill:#161413;stroke:none;" xlink:href="#GlTimesNewRomanPSMT76" transform="matrix(1.2 0 0 1.2 3.99609 11.342)"/>
   <use style="fill:#161413;stroke:none;" xlink:href="#GlTimesNewRomanPSMT105" transform="matrix(1.2 0 0 1.2 11.3262 11.342)"/>
   <use style="fill:#161413;stroke:none;" xlink:href="#GlTimesNewRomanPSMT115" transform="matrix(1.2 0 0 1.2 14.6602 11.342)"/>
   <use style="fill:#161413;stroke:none;" xlink:href="#GlTimesNewRomanPSMT116" transform="matrix(1.2 0 0 1.2 19.3301 11.342)"/>
   <use style="fill:#161413;stroke:none;" xlink:href="#GlTimesNewRomanPSMT44" transform="matrix(1.2 0 0 1.2 22.6641 11.342)"/>
   <use style="fill:#161413;stroke:none;" xlink:href="#GlTimesNewRomanPSMT80" transform="matrix(1.2 0 0 1.2 28.6641 11.342)"/>
   <use style="fill:#161413;stroke:none;" xlink:href="#GlTimesNewRomanPSMT97" transform="matrix(1.2 0 0 1.2 35.3379 11.342)"/>
   <use style="fill:#161413;stroke:none;" xlink:href="#GlTimesNewRomanPSMT100" transform="matrix(1.2 0 0 1.2 40.6641 11.342)"/>
   <use style="fill:#161413;stroke:none;" xlink:href="#GlTimesNewRomanPSMT44" transform="matrix(1.2 0 0 1.2 46.6641 11.342)"/>
   <use style="fill:#161413;stroke:none;" xlink:href="#GlTimesNewRomanPSMT76" transform="matrix(1.2 0 0 1.2 52.6641 11.342)"/>
   <use style="fill:#161413;stroke:none;" xlink:href="#GlTimesNewRomanPSMT97" transform="matrix(1.2 0 0 1.2 59.9941 11.342)"/>
   <use style="fill:#161413;stroke:none;" xlink:href="#GlTimesNewRomanPSMT121" transform="matrix(1.2 0 0 1.2 65.3203 11.342)"/>
   <use style="fill:#161413;stroke:none;" xlink:href="#GlTimesNewRomanPSMT101" transform="matrix(1.2 0 0 1.2 71.3203 11.342)"/>
   <use style="fill:#161413;stroke:none;" xlink:href="#GlTimesNewRomanPSMT114" transform="matrix(1.2 0 0 1.2 76.6465 11.342)"/>
   <use style="fill:#161413;stroke:none;" xlink:href="#GlTimesNewRomanPSMT115" transform="matrix(1.2 0 0 1.2 80.6426 11.342)"/>
   <use style="fill:#161413;stroke:none;" xlink:href="#GlTimesNewRomanPSMT46" transform="matrix(1.2 0 0 1.2 85.3125 11.342)"/>
   <use style="fill:#161413;stroke:none;" xlink:href="#GlTimesNewRomanPSMT46" transform="matrix(1.2 0 0 1.2 88.3125 11.342)"/>
   <use style="fill:#161413;stroke:none;" xlink:href="#GlTimesNewRomanPSMT46" transform="matrix(1.2 0 0 1.2 91.3125 11.342)"/>
   <use style="fill:#161413;stroke:none;" xlink:href="#GlTimesNewRomanPSMT41" transform="matrix(1.2 0 0 1.2 94.3125 11.342)"/>
   <path style="fill:none; stroke:none;" d="M0 0 L112.313 0 L112.313 35.5 L0 35.5 L0 0 Z"/>
  </g>
  <g>
   <path style="stroke:#161413; stroke-width:1; stroke-linecap:butt; stroke-linejoin:miter; stroke-dasharray:none;" d="M 0 0 L 25.9726 0" transform="translate(137.625, 58.125) rotate(90)"/>
   <path style="fill:#161413; stroke:none;" d="M25.9726 0 L25.9726 0 L23.4726 -2.5 L31.9726 0 L23.4726 2.5 L25.9726 0 Z" transform="translate(137.625, 58.125) rotate(90)"/>
  </g>
  <g>
   <path style="stroke:#161413; stroke-width:1; stroke-linecap:butt; stroke-linejoin:miter; stroke-dasharray:none;" d="M 0 0 L 36.3159 0" transform="translate(105.625, 116.125) rotate(130.323)"/>
   <path style="fill:#161413; stroke:none;" d="M36.3159 0 L36.3159 0 L33.8159 -2.5 L42.3159 0 L33.8159 2.5 L36.3159 0 Z" transform="translate(105.625, 116.125) rotate(130.323)"/>
  </g>
  <g>
   <path style="stroke:#161413; stroke-width:1; stroke-linecap:butt; stroke-linejoin:miter; stroke-dasharray:none;" d="M 0 0 L 43.6467 0" transform="translate(137.022, 167.625) rotate(180)"/>
   <path style="fill:#161413; stroke:none;" d="M43.6467 0 L43.6467 0 L41.1467 -2.5 L49.6467 0 L41.1467 2.5 L43.6467 0 Z" transform="translate(137.022, 167.625) rotate(180)"/>
  </g>
  <g>
   <path style="stroke:#161413; stroke-width:1.5; stroke-linecap:butt; stroke-linejoin:miter; stroke-dasharray:none;" d="M 0 0 L 20.8844 0" transform="translate(153.625, 124.125) rotate(90)"/>
   <path style="fill:#161413; stroke:none;" d="M0 0 L0 0 L3.75 -3.75 L-9 0 L3.75 3.75 L0 0 Z" transform="translate(153.625, 124.125) rotate(90)"/>
   <path style="fill:#161413; stroke:none;" d="M20.8844 0 L20.8844 0 L17.1344 -3.75 L29.8844 0 L17.1344 3.75 L20.8844 0 Z" transform="translate(153.625, 124.125) rotate(90)"/>
  </g>
  <g>
   <path style="stroke:#009ee0; stroke-width:1; stroke-linecap:butt; stroke-linejoin:miter; stroke-dasharray:none;" d="M 0 0 L 98.1996 0" transform="translate(179.364, 102.125)"/>
   <path style="fill:#009ee0; stroke:none;" d="M0.374507 -0.0456926 C0.374507 2.71431 -1.86549 4.95431 -4.62549 4.95431 L-4.62549 -5.04569 C-1.86549 -5.04569 0.374507 -2.80569 0.374507 -0.0456926 Z" transform="translate(179.364, 102.125)"/>
   <path style="fill:#009ee0; stroke:none;" d="M98.1996 0 L98.1996 0 L95.6996 -2.5 L104.2 0 L95.6996 2.5 L98.1996 0 Z" transform="translate(179.364, 102.125)"/>
  </g>
  <path style="fill:none;stroke:#8ec14d; stroke-width:1; stroke-linecap:butt; stroke-linejoin:miter; stroke-dasharray:none;" d="M0 0 L68.5 0 L68.5 23.1875 L0 23.1875 L0 0 Z" transform="translate(259.562, 158.938)"/>
  <g transform="translate(268.562, 164.5)">
   <use style="fill:#161413;stroke:none;" xlink:href="#GlTimesNewRomanPSMT65" transform="matrix(1.2 0 0 1.2 0 -3.65797)"/>
   <use style="fill:#161413;stroke:none;" xlink:href="#GlTimesNewRomanPSMT110" transform="matrix(1.2 0 0 1.2 8.66602 -3.65797)"/>
   <use style="fill:#161413;stroke:none;" xlink:href="#GlTimesNewRomanPSMT105" transform="matrix(1.2 0 0 1.2 14.666 -3.65797)"/>
   <use style="fill:#161413;stroke:none;" xlink:href="#GlTimesNewRomanPSMT109" transform="matrix(1.2 0 0 1.2 18 -3.65797)"/>
   <use style="fill:#161413;stroke:none;" xlink:href="#GlTimesNewRomanPSMT97" transform="matrix(1.2 0 0 1.2 27.334 -3.65797)"/>
   <use style="fill:#161413;stroke:none;" xlink:href="#GlTimesNewRomanPSMT116" transform="matrix(1.2 0 0 1.2 32.6602 -3.65797)"/>
   <use style="fill:#161413;stroke:none;" xlink:href="#GlTimesNewRomanPSMT105" transform="matrix(1.2 0 0 1.2 35.9941 -3.65797)"/>
   <use style="fill:#161413;stroke:none;" xlink:href="#GlTimesNewRomanPSMT111" transform="matrix(1.2 0 0 1.2 39.3281 -3.65797)"/>
   <use style="fill:#161413;stroke:none;" xlink:href="#GlTimesNewRomanPSMT110" transform="matrix(1.2 0 0 1.2 45.3281 -3.65797)"/>
   <path style="fill:none; stroke:none;" d="M0 0 L93.125 0 L93.125 15.625 L0 15.625 L0 0 Z"/>
  </g>
  <g>
   <path style="stroke:#161413; stroke-width:1; stroke-linecap:butt; stroke-linejoin:miter; stroke-dasharray:none;" d="M 0 0 L 27.875 0" transform="translate(297.875, 211.125) rotate(270)"/>
   <path style="fill:#161413; stroke:none;" d="M27.875 0 L27.875 0 L25.375 -2.5 L33.875 0 L25.375 2.5 L27.875 0 Z" transform="translate(297.875, 211.125) rotate(270)"/>
  </g>
  <g transform="translate(257.562, 222.5)">
   <use style="fill:#161413;stroke:none;" xlink:href="#GlTimesNewRomanPSMT83" transform="matrix(1.2 0 0 1.2 0 -3.65797)"/>
   <use style="fill:#161413;stroke:none;" xlink:href="#GlTimesNewRomanPSMT105" transform="matrix(1.2 0 0 1.2 6.67383 -3.65797)"/>
   <use style="fill:#161413;stroke:none;" xlink:href="#GlTimesNewRomanPSMT122" transform="matrix(1.2 0 0 1.2 10.0078 -3.65797)"/>
   <use style="fill:#161413;stroke:none;" xlink:href="#GlTimesNewRomanPSMT101" transform="matrix(1.2 0 0 1.2 15.334 -3.65797)"/>
   <use style="fill:#161413;stroke:none;" xlink:href="#GlTimesNewRomanPSMT65" transform="matrix(1.2 0 0 1.2 20.6602 -3.65797)"/>
   <use style="fill:#161413;stroke:none;" xlink:href="#GlTimesNewRomanPSMT110" transform="matrix(1.2 0 0 1.2 29.3262 -3.65797)"/>
   <use style="fill:#161413;stroke:none;" xlink:href="#GlTimesNewRomanPSMT105" transform="matrix(1.2 0 0 1.2 35.3262 -3.65797)"/>
   <use style="fill:#161413;stroke:none;" xlink:href="#GlTimesNewRomanPSMT109" transform="matrix(1.2 0 0 1.2 38.6602 -3.65797)"/>
   <use style="fill:#161413;stroke:none;" xlink:href="#GlTimesNewRomanPSMT97" transform="matrix(1.2 0 0 1.2 47.9941 -3.65797)"/>
   <use style="fill:#161413;stroke:none;" xlink:href="#GlTimesNewRomanPSMT116" transform="matrix(1.2 0 0 1.2 53.3203 -3.65797)"/>
   <use style="fill:#161413;stroke:none;" xlink:href="#GlTimesNewRomanPSMT105" transform="matrix(1.2 0 0 1.2 56.6543 -3.65797)"/>
   <use style="fill:#161413;stroke:none;" xlink:href="#GlTimesNewRomanPSMT111" transform="matrix(1.2 0 0 1.2 59.9883 -3.65797)"/>
   <use style="fill:#161413;stroke:none;" xlink:href="#GlTimesNewRomanPSMT44" transform="matrix(1.2 0 0 1.2 65.9883 -3.65797)"/>
   <use style="fill:#161413;stroke:none;" xlink:href="#GlTimesNewRomanPSMT80" transform="matrix(1.2 0 0 1.2 0 11.342)"/>
   <use style="fill:#161413;stroke:none;" xlink:href="#GlTimesNewRomanPSMT111" transform="matrix(1.2 0 0 1.2 6.67383 11.342)"/>
   <use style="fill:#161413;stroke:none;" xlink:href="#GlTimesNewRomanPSMT115" transform="matrix(1.2 0 0 1.2 12.6738 11.342)"/>
   <use style="fill:#161413;stroke:none;" xlink:href="#GlTimesNewRomanPSMT105" transform="matrix(1.2 0 0 1.2 17.3438 11.342)"/>
   <use style="fill:#161413;stroke:none;" xlink:href="#GlTimesNewRomanPSMT116" transform="matrix(1.2 0 0 1.2 20.6777 11.342)"/>
   <use style="fill:#161413;stroke:none;" xlink:href="#GlTimesNewRomanPSMT105" transform="matrix(1.2 0 0 1.2 24.0117 11.342)"/>
   <use style="fill:#161413;stroke:none;" xlink:href="#GlTimesNewRomanPSMT111" transform="matrix(1.2 0 0 1.2 27.3457 11.342)"/>
   <use style="fill:#161413;stroke:none;" xlink:href="#GlTimesNewRomanPSMT110" transform="matrix(1.2 0 0 1.2 33.3457 11.342)"/>
   <use style="fill:#161413;stroke:none;" xlink:href="#GlTimesNewRomanPSMT65" transform="matrix(1.2 0 0 1.2 39.3457 11.342)"/>
   <use style="fill:#161413;stroke:none;" xlink:href="#GlTimesNewRomanPSMT110" transform="matrix(1.2 0 0 1.2 48.0117 11.342)"/>
   <use style="fill:#161413;stroke:none;" xlink:href="#GlTimesNewRomanPSMT105" transform="matrix(1.2 0 0 1.2 54.0117 11.342)"/>
   <use style="fill:#161413;stroke:none;" xlink:href="#GlTimesNewRomanPSMT109" transform="matrix(1.2 0 0 1.2 57.3457 11.342)"/>
   <use style="fill:#161413;stroke:none;" xlink:href="#GlTimesNewRomanPSMT97" transform="matrix(1.2 0 0 1.2 66.6797 11.342)"/>
   <use style="fill:#161413;stroke:none;" xlink:href="#GlTimesNewRomanPSMT116" transform="matrix(1.2 0 0 1.2 72.0059 11.342)"/>
   <use style="fill:#161413;stroke:none;" xlink:href="#GlTimesNewRomanPSMT105" transform="matrix(1.2 0 0 1.2 75.3398 11.342)"/>
   <use style="fill:#161413;stroke:none;" xlink:href="#GlTimesNewRomanPSMT111" transform="matrix(1.2 0 0 1.2 78.6738 11.342)"/>
   <use style="fill:#161413;stroke:none;" xlink:href="#GlTimesNewRomanPSMT110" transform="matrix(1.2 0 0 1.2 84.6738 11.342)"/>
   <use style="fill:#161413;stroke:none;" xlink:href="#GlTimesNewRomanPSMT44" transform="matrix(1.2 0 0 1.2 90.6738 11.342)"/>
   <use style="fill:#161413;stroke:none;" xlink:href="#GlTimesNewRomanPSMT46" transform="matrix(1.2 0 0 1.2 93.6738 11.342)"/>
   <use style="fill:#161413;stroke:none;" xlink:href="#GlTimesNewRomanPSMT46" transform="matrix(1.2 0 0 1.2 96.6738 11.342)"/>
   <path style="fill:none; stroke:none;" d="M0 0 L102.625 0 L102.625 40.875 L0 40.875 L0 0 Z"/>
  </g>
  <g>
   <path style="stroke:#161413; stroke-width:1.5; stroke-linecap:butt; stroke-linejoin:miter; stroke-dasharray:none;" d="M 0 0 L 20.8844 0" transform="translate(309.625, 129.125) rotate(90)"/>
   <path style="fill:#161413; stroke:none;" d="M0 0 L0 0 L3.75 -3.75 L-9 0 L3.75 3.75 L0 0 Z" transform="translate(309.625, 129.125) rotate(90)"/>
   <path style="fill:#161413; stroke:none;" d="M20.8844 0 L20.8844 0 L17.1344 -3.75 L29.8844 0 L17.1344 3.75 L20.8844 0 Z" transform="translate(309.625, 129.125) rotate(90)"/>
  </g>
  <path style="fill:none;stroke:#e45e54; stroke-width:1; stroke-linecap:butt; stroke-linejoin:miter; stroke-dasharray:4, 2;" d="M0 0 L24.75 0 L24.75 15.8125 L0 15.8125 L0 0 Z" transform="translate(172.312, 168)"/>
  <g>
   <path style="stroke:#e45e54; stroke-width:1; stroke-linecap:butt; stroke-linejoin:miter; stroke-dasharray:none;" d="M 0 0 L 97.827 0" transform="translate(287.625, 117.125) rotate(151.077)"/>
   <path style="fill:#e45e54; stroke:none;" d="M97.827 0 L97.827 0 L95.327 -2.5 L103.827 0 L95.327 2.5 L97.827 0 Z" transform="translate(287.625, 117.125) rotate(151.077)"/>
  </g>
  <g transform="translate(193.562, 118.5)">
   <use style="fill:#e45e54;stroke:none;" xlink:href="#GlTimesNewRomanPS-ItalicMT102" transform="matrix(1.2 0 0 1.2 0 -3.66797)"/>
   <use style="fill:#e45e54;stroke:none;" xlink:href="#GlTimesNewRomanPS-ItalicMT111" transform="matrix(1.2 0 0 1.2 3.33398 -3.66797)"/>
   <use style="fill:#e45e54;stroke:none;" xlink:href="#GlTimesNewRomanPS-ItalicMT114" transform="matrix(1.2 0 0 1.2 9.33398 -3.66797)"/>
   <use style="fill:#e45e54;stroke:none;" xlink:href="#GlTimesNewRomanPS-ItalicMT110" transform="matrix(1.2 0 0 1.2 17.0039 -3.66797)"/>
   <use style="fill:#e45e54;stroke:none;" xlink:href="#GlTimesNewRomanPS-ItalicMT111" transform="matrix(1.2 0 0 1.2 23.0039 -3.66797)"/>
   <use style="fill:#e45e54;stroke:none;" xlink:href="#GlTimesNewRomanPS-ItalicMT119" transform="matrix(1.2 0 0 1.2 29.0039 -3.66797)"/>
   <use style="fill:#e45e54;stroke:none;" xlink:href="#GlTimesNewRomanPS-ItalicMT111" transform="matrix(1.2 0 0 1.2 40.0078 -3.66797)"/>
   <use style="fill:#e45e54;stroke:none;" xlink:href="#GlTimesNewRomanPS-ItalicMT110" transform="matrix(1.2 0 0 1.2 46.0078 -3.66797)"/>
   <use style="fill:#e45e54;stroke:none;" xlink:href="#GlTimesNewRomanPS-ItalicMT108" transform="matrix(1.2 0 0 1.2 52.0078 -3.66797)"/>
   <use style="fill:#e45e54;stroke:none;" xlink:href="#GlTimesNewRomanPS-ItalicMT121" transform="matrix(1.2 0 0 1.2 55.3418 -3.66797)"/>
   <use style="fill:#e45e54;stroke:none;" xlink:href="#GlTimesNewRomanPS-ItalicMT46" transform="matrix(1.2 0 0 1.2 60.0059 -3.66797)"/>
   <use style="fill:#e45e54;stroke:none;" xlink:href="#GlTimesNewRomanPS-ItalicMT46" transform="matrix(1.2 0 0 1.2 63.0059 -3.66797)"/>
   <use style="fill:#e45e54;stroke:none;" xlink:href="#GlTimesNewRomanPS-ItalicMT46" transform="matrix(1.2 0 0 1.2 66.0059 -3.66797)"/>
   <path style="fill:none; stroke:none;" d="M0 0 L129 0 L129 22.5938 L0 22.5938 L0 0 Z"/>
  </g>
 </g>
</svg>
